<svg width="34" height="34" viewBox="0 0 34 34" fill="none" xmlns="http://www.w3.org/2000/svg">
<path fill-rule="evenodd" clip-rule="evenodd" d="M17.0007 1.771C17.2824 1.771 17.5527 1.88294 17.752 2.0822C17.9512 2.28145 18.0632 2.5517 18.0632 2.8335V4.25016C18.0632 4.53196 17.9512 4.80221 17.752 5.00146C17.5527 5.20072 17.2824 5.31266 17.0007 5.31266C16.7189 5.31266 16.4486 5.20072 16.2494 5.00146C16.0501 4.80221 15.9382 4.53196 15.9382 4.25016V2.8335C15.9382 2.5517 16.0501 2.28145 16.2494 2.0822C16.4486 1.88294 16.7189 1.771 17.0007 1.771ZM6.23257 6.23208C6.43179 6.03311 6.70184 5.92135 6.9834 5.92135C7.26496 5.92135 7.53502 6.03311 7.73423 6.23208L8.29099 6.78741C8.48462 6.98771 8.59185 7.25605 8.58956 7.53464C8.58727 7.81322 8.47565 8.07977 8.27875 8.27686C8.08184 8.47395 7.81541 8.58581 7.53682 8.58837C7.25824 8.59092 6.9898 8.48395 6.78932 8.2905L6.23257 7.73375C6.0336 7.53453 5.92184 7.26448 5.92184 6.98291C5.92184 6.70135 6.0336 6.4313 6.23257 6.23208ZM27.7687 6.23208C27.9677 6.4313 28.0795 6.70135 28.0795 6.98291C28.0795 7.26448 27.9677 7.53453 27.7687 7.73375L27.212 8.2905C27.0106 8.47818 26.7442 8.58035 26.4689 8.57549C26.1937 8.57064 25.931 8.45913 25.7364 8.26446C25.5417 8.06979 25.4302 7.80716 25.4253 7.5319C25.4205 7.25664 25.5226 6.99024 25.7103 6.78883L26.2671 6.23208C26.4663 6.03311 26.7363 5.92135 27.0179 5.92135C27.2995 5.92135 27.5695 6.03311 27.7687 6.23208ZM17.0007 9.56266C15.0281 9.56266 13.1363 10.3463 11.7415 11.7411C10.3467 13.1359 9.56315 15.0276 9.56315 17.0002C9.56315 18.9727 10.3467 20.8645 11.7415 22.2593C13.1363 23.6541 15.0281 24.4377 17.0007 24.4377C18.9732 24.4377 20.865 23.6541 22.2598 22.2593C23.6546 20.8645 24.4382 18.9727 24.4382 17.0002C24.4382 15.0276 23.6546 13.1359 22.2598 11.7411C20.865 10.3463 18.9732 9.56266 17.0007 9.56266ZM7.43815 17.0002C7.43815 14.464 8.44563 12.0318 10.2389 10.2385C12.0323 8.44514 14.4645 7.43766 17.0007 7.43766C19.5368 7.43766 21.969 8.44514 23.7624 10.2385C25.5557 12.0318 26.5632 14.464 26.5632 17.0002C26.5632 19.5363 25.5557 21.9686 23.7624 23.7619C21.969 25.5552 19.5368 26.5627 17.0007 26.5627C14.4645 26.5627 12.0323 25.5552 10.2389 23.7619C8.44563 21.9686 7.43815 19.5363 7.43815 17.0002ZM1.77148 17.0002C1.77148 16.7184 1.88343 16.4481 2.08268 16.2489C2.28194 16.0496 2.55219 15.9377 2.83398 15.9377H4.25065C4.53244 15.9377 4.80269 16.0496 5.00195 16.2489C5.20121 16.4481 5.31315 16.7184 5.31315 17.0002C5.31315 17.282 5.20121 17.5522 5.00195 17.7515C4.80269 17.9507 4.53244 18.0627 4.25065 18.0627H2.83398C2.55219 18.0627 2.28194 17.9507 2.08268 17.7515C1.88343 17.5522 1.77148 17.282 1.77148 17.0002ZM28.6882 17.0002C28.6882 16.7184 28.8001 16.4481 28.9994 16.2489C29.1986 16.0496 29.4689 15.9377 29.7507 15.9377H31.1673C31.4491 15.9377 31.7194 16.0496 31.9186 16.2489C32.1179 16.4481 32.2298 16.7184 32.2298 17.0002C32.2298 17.282 32.1179 17.5522 31.9186 17.7515C31.7194 17.9507 31.4491 18.0627 31.1673 18.0627H29.7507C29.4689 18.0627 29.1986 17.9507 28.9994 17.7515C28.8001 17.5522 28.6882 17.282 28.6882 17.0002ZM25.7103 25.7098C25.9095 25.5109 26.1796 25.3991 26.4612 25.3991C26.7427 25.3991 27.0128 25.5109 27.212 25.7098L27.7687 26.2666C27.8731 26.3639 27.9569 26.4812 28.0149 26.6115C28.073 26.7418 28.1042 26.8825 28.1067 27.0252C28.1093 27.1678 28.083 27.3095 28.0296 27.4418C27.9761 27.5741 27.8966 27.6943 27.7957 27.7952C27.6948 27.8961 27.5746 27.9756 27.4423 28.0291C27.31 28.0825 27.1683 28.1088 27.0257 28.1063C26.883 28.1037 26.7423 28.0725 26.612 28.0144C26.4816 27.9564 26.3643 27.8726 26.2671 27.7682L25.7103 27.2115C25.5113 27.0123 25.3996 26.7422 25.3996 26.4607C25.3996 26.1791 25.5113 25.9091 25.7103 25.7098ZM8.29099 25.7098C8.48996 25.9091 8.60172 26.1791 8.60172 26.4607C8.60172 26.7422 8.48996 27.0123 8.29099 27.2115L7.73423 27.7682C7.63696 27.8726 7.51966 27.9564 7.38933 28.0144C7.259 28.0725 7.1183 28.1037 6.97564 28.1063C6.83298 28.1088 6.69127 28.0825 6.55897 28.0291C6.42667 27.9756 6.30649 27.8961 6.2056 27.7952C6.1047 27.6943 6.02517 27.5741 5.97173 27.4418C5.91829 27.3095 5.89205 27.1678 5.89456 27.0252C5.89708 26.8825 5.92831 26.7418 5.98638 26.6115C6.04445 26.4812 6.12818 26.3639 6.23257 26.2666L6.7879 25.7098C6.88657 25.6111 7.00373 25.5328 7.13268 25.4793C7.26164 25.4259 7.39986 25.3984 7.53944 25.3984C7.67903 25.3984 7.81725 25.4259 7.9462 25.4793C8.07515 25.5328 8.19231 25.6111 8.29099 25.7098ZM17.0007 28.6877C17.2824 28.6877 17.5527 28.7996 17.752 28.9989C17.9512 29.1981 18.0632 29.4684 18.0632 29.7502V31.1668C18.0632 31.4486 17.9512 31.7189 17.752 31.9181C17.5527 32.1174 17.2824 32.2293 17.0007 32.2293C16.7189 32.2293 16.4486 32.1174 16.2494 31.9181C16.0501 31.7189 15.9382 31.4486 15.9382 31.1668V29.7502C15.9382 29.4684 16.0501 29.1981 16.2494 28.9989C16.4486 28.7996 16.7189 28.6877 17.0007 28.6877Z" fill="black"/>
</svg>
