<svg width="202" height="202" viewBox="0 0 202 202" fill="none" xmlns="http://www.w3.org/2000/svg">
<path d="M88.7163 43.5H100.727M100.727 43.5H112.738M100.727 43.5V31.489M100.727 43.5V55.5109M137.467 107.794H149.477M149.477 107.794H161.488M149.477 107.794V95.7828M149.477 107.794V119.805M149.477 39.2608H161.488M161.488 39.2608H173.499M161.488 39.2608V27.2499M161.488 39.2608V51.2717" stroke="black" stroke-width="6.75" stroke-linecap="round"/>
<path d="M56.3043 30.8236C56.3043 94.3165 107.683 145.696 171.176 145.696C176.711 145.696 182.141 145.278 187.467 144.547C170.654 170.341 141.623 187.467 108.519 187.467C56.6176 187.467 14.5326 145.382 14.5326 93.4811C14.5326 60.377 31.659 31.3457 57.453 14.5326C56.722 19.8585 56.3043 25.2888 56.3043 30.8236Z" fill="black"/>
<path d="M56.3043 30.8236C56.3043 25.2888 56.722 19.8585 57.453 14.5326C31.659 31.3457 14.5326 60.377 14.5326 93.4811L14.5402 94.6956C15.1855 145.633 56.3667 186.814 107.304 187.459L108.519 187.467C141.623 187.467 170.654 170.341 187.467 144.547C182.141 145.278 176.711 145.696 171.176 145.696L171.176 142.163C176.533 142.163 181.802 141.758 186.987 141.047C188.357 140.859 189.711 141.488 190.451 142.656C191.191 143.824 191.182 145.317 190.427 146.476C172.994 173.221 142.875 191 108.519 191C54.6669 191 11.0001 147.333 11 93.4812C11 59.1251 28.7794 29.0061 55.5242 11.5733C56.6828 10.8181 58.1756 10.8082 59.3438 11.5484C60.5121 12.2887 61.1409 13.6426 60.9529 15.0128C60.2412 20.1976 59.8372 25.4667 59.8372 30.8233C59.8372 92.3652 109.634 142.163 171.176 142.163L171.176 145.696L169.691 145.686C107.379 144.898 57.1015 94.6217 56.3135 32.3095L56.3043 30.8236Z" fill="black"/>
</svg>
