<svg width="34" height="34" viewBox="0 0 34 34" fill="none" xmlns="http://www.w3.org/2000/svg">
<path fill-rule="evenodd" clip-rule="evenodd" d="M17.0007 1.771C17.2824 1.771 17.5527 1.88294 17.752 2.0822C17.9512 2.28145 18.0632 2.5517 18.0632 2.8335V4.25016C18.0632 4.53196 17.9512 4.80221 17.752 5.00146C17.5527 5.20072 17.2824 5.31266 17.0007 5.31266C16.7189 5.31266 16.4486 5.20072 16.2494 5.00146C16.0501 4.80221 15.9382 4.53196 15.9382 4.25016V2.8335C15.9382 2.5517 16.0501 2.28145 16.2494 2.0822C16.4486 1.88294 16.7189 1.771 17.0007 1.771ZM6.23257 6.23208C6.43179 6.03311 6.70184 5.92135 6.9834 5.92135C7.26496 5.92135 7.53502 6.03311 7.73423 6.23208L8.29099 6.78741C8.48462 6.98771 8.59185 7.25605 8.58956 7.53464C8.58727 7.81322 8.47565 8.07977 8.27875 8.27686C8.08184 8.47395 7.81541 8.58581 7.53682 8.58837C7.25824 8.59092 6.9898 8.48395 6.78932 8.2905L6.23257 7.73375C6.0336 7.53453 5.92184 7.26448 5.92184 6.98291C5.92184 6.70135 6.0336 6.4313 6.23257 6.23208ZM27.7687 6.23208C27.9677 6.4313 28.0795 6.70135 28.0795 6.98291C28.0795 7.26448 27.9677 7.53453 27.7687 7.73375L27.212 8.2905C27.0106 8.47818 26.7442 8.58035 26.4689 8.57549C26.1937 8.57064 25.931 8.45913 25.7364 8.26446C25.5417 8.06979 25.4302 7.80716 25.4253 7.5319C25.4205 7.25664 25.5226 6.99024 25.7103 6.78883L26.2671 6.23208C26.4663 6.03311 26.7363 5.92135 27.0179 5.92135C27.2995 5.92135 27.5695 6.03311 27.7687 6.23208ZM15.9382 9.63775C14.65 9.82338 13.4331 10.3438 12.4091 11.1469C11.385 11.9501 10.5897 13.0079 10.1024 14.2147C9.61516 15.4215 9.45311 16.735 9.63243 18.024C9.81176 19.313 10.3262 20.5324 11.1243 21.5604H22.877C23.6751 20.5324 24.1896 19.313 24.3689 18.024C24.5482 16.735 24.3861 15.4215 23.8989 14.2147C23.4116 13.0079 22.6163 11.9501 21.5922 11.1469C20.5682 10.3438 19.3513 9.82338 18.0632 9.63775V15.8512L19.0832 14.8312C19.1812 14.7298 19.2985 14.6489 19.4281 14.5933C19.5578 14.5377 19.6972 14.5084 19.8383 14.5073C19.9794 14.5061 20.1193 14.5331 20.2498 14.5866C20.3804 14.64 20.499 14.719 20.5987 14.8188C20.6984 14.9186 20.7773 15.0373 20.8306 15.1679C20.884 15.2985 20.9108 15.4384 20.9095 15.5795C20.9082 15.7206 20.8788 15.86 20.8231 15.9896C20.7673 16.1192 20.6863 16.2364 20.5848 16.3343L17.7515 19.1677C17.5523 19.3666 17.2822 19.4784 17.0007 19.4784C16.7191 19.4784 16.449 19.3666 16.2498 19.1677L13.4165 16.3343C13.3121 16.2371 13.2284 16.1198 13.1703 15.9894C13.1122 15.8591 13.081 15.7184 13.0785 15.5757C13.076 15.4331 13.1022 15.2914 13.1556 15.1591C13.2091 15.0268 13.2886 14.9066 13.3895 14.8057C13.4904 14.7048 13.6106 14.6253 13.7429 14.5718C13.8752 14.5184 14.0169 14.4921 14.1596 14.4947C14.3022 14.4972 14.4429 14.5284 14.5732 14.5865C14.7036 14.6445 14.8209 14.7283 14.9182 14.8327L15.9382 15.8527V9.63775ZM8.61824 21.6043C7.81914 20.1482 7.4131 18.509 7.44013 16.8483C7.46715 15.1875 7.92629 13.5624 8.77233 12.133C9.61838 10.7037 10.8222 9.51933 12.2651 8.69665C13.708 7.87397 15.3404 7.44133 17.0014 7.44133C18.6623 7.44133 20.2947 7.87397 21.7376 8.69665C23.1806 9.51933 24.3843 10.7037 25.2304 12.133C26.0764 13.5624 26.5356 15.1875 26.5626 16.8483C26.5896 18.509 26.1836 20.1482 25.3845 21.6043H31.1673C31.4491 21.6043 31.7194 21.7163 31.9186 21.9155C32.1179 22.1148 32.2298 22.385 32.2298 22.6668C32.2298 22.9486 32.1179 23.2189 31.9186 23.4181C31.7194 23.6174 31.4491 23.7293 31.1673 23.7293H2.83398C2.55219 23.7293 2.28194 23.6174 2.08268 23.4181C1.88343 23.2189 1.77148 22.9486 1.77148 22.6668C1.77148 22.385 1.88343 22.1148 2.08268 21.9155C2.28194 21.7163 2.55219 21.6043 2.83398 21.6043H8.61824ZM1.77148 17.0002C1.77148 16.7184 1.88343 16.4481 2.08268 16.2489C2.28194 16.0496 2.55219 15.9377 2.83398 15.9377H4.25065C4.53244 15.9377 4.80269 16.0496 5.00195 16.2489C5.20121 16.4481 5.31315 16.7184 5.31315 17.0002C5.31315 17.282 5.20121 17.5522 5.00195 17.7515C4.80269 17.9507 4.53244 18.0627 4.25065 18.0627H2.83398C2.55219 18.0627 2.28194 17.9507 2.08268 17.7515C1.88343 17.5522 1.77148 17.282 1.77148 17.0002ZM28.6882 17.0002C28.6882 16.7184 28.8001 16.4481 28.9994 16.2489C29.1986 16.0496 29.4689 15.9377 29.7507 15.9377H31.1673C31.4491 15.9377 31.7194 16.0496 31.9186 16.2489C32.1179 16.4481 32.2298 16.7184 32.2298 17.0002C32.2298 17.282 32.1179 17.5522 31.9186 17.7515C31.7194 17.9507 31.4491 18.0627 31.1673 18.0627H29.7507C29.4689 18.0627 29.1986 17.9507 28.9994 17.7515C28.8001 17.5522 28.6882 17.282 28.6882 17.0002ZM6.02148 26.9168C6.02148 26.635 6.13343 26.3648 6.33268 26.1655C6.53194 25.9663 6.80219 25.8543 7.08398 25.8543H26.9173C27.1991 25.8543 27.4694 25.9663 27.6686 26.1655C27.8679 26.3648 27.9798 26.635 27.9798 26.9168C27.9798 27.1986 27.8679 27.4689 27.6686 27.6681C27.4694 27.8674 27.1991 27.9793 26.9173 27.9793H7.08398C6.80219 27.9793 6.53194 27.8674 6.33268 27.6681C6.13343 27.4689 6.02148 27.1986 6.02148 26.9168ZM10.2715 31.1668C10.2715 30.885 10.3834 30.6148 10.5827 30.4155C10.7819 30.2163 11.0522 30.1043 11.334 30.1043H22.6673C22.9491 30.1043 23.2194 30.2163 23.4186 30.4155C23.6179 30.6148 23.7298 30.885 23.7298 31.1668C23.7298 31.4486 23.6179 31.7189 23.4186 31.9181C23.2194 32.1174 22.9491 32.2293 22.6673 32.2293H11.334C11.0522 32.2293 10.7819 32.1174 10.5827 31.9181C10.3834 31.7189 10.2715 31.4486 10.2715 31.1668Z" fill="black"/>
</svg>
