<svg width="34" height="34" viewBox="0 0 34 34" fill="none" xmlns="http://www.w3.org/2000/svg">
<path d="M11.334 31.1665H22.6673M7.08398 26.9165H26.9173M2.83398 22.6665H31.1673" stroke="black" stroke-width="2.125" stroke-linecap="round" stroke-linejoin="round"/>
<path d="M17.0005 8.5C15.3646 8.49991 13.7634 8.97189 12.3891 9.8593C11.0148 10.7467 9.92579 12.0119 9.25273 13.5029C8.57968 14.9939 8.35119 16.6475 8.59469 18.2652C8.83819 19.8829 9.54332 21.3959 10.6255 22.6227H23.3755C24.4576 21.3959 25.1628 19.8829 25.4063 18.2652C25.6497 16.6475 25.4213 14.9939 24.7482 13.5029C24.0752 12.0119 22.9861 10.7467 21.6118 9.8593C20.2376 8.97189 18.6364 8.49991 17.0005 8.5Z" stroke="black" stroke-width="2.125"/>
<path d="M16.9985 14.1665L17.7493 13.4157C17.5501 13.2167 17.2801 13.105 16.9985 13.105C16.7169 13.105 16.4469 13.2167 16.2477 13.4157L16.9985 14.1665ZM19.081 17.7507C19.1783 17.8551 19.2956 17.9388 19.4259 17.9969C19.5562 18.055 19.6969 18.0862 19.8396 18.0887C19.9823 18.0912 20.124 18.065 20.2563 18.0116C20.3886 17.9581 20.5088 17.8786 20.6096 17.7777C20.7105 17.6768 20.7901 17.5566 20.8435 17.4243C20.897 17.292 20.9232 17.1503 20.9207 17.0076C20.9182 16.865 20.8869 16.7243 20.8289 16.594C20.7708 16.4636 20.6871 16.3463 20.5827 16.249L19.081 17.7507ZM13.4143 16.249C13.31 16.3463 13.2262 16.4636 13.1682 16.594C13.1101 16.7243 13.0789 16.865 13.0763 17.0076C13.0738 17.1503 13.1001 17.292 13.1535 17.4243C13.2069 17.5566 13.2865 17.6768 13.3874 17.7777C13.4883 17.8786 13.6084 17.9581 13.7407 18.0116C13.873 18.065 14.0148 18.0912 14.1574 18.0887C14.3001 18.0862 14.4408 18.055 14.5711 17.9969C14.7014 17.9388 14.8187 17.8551 14.916 17.7507L13.4143 16.249ZM18.061 22.6665V14.1665H15.936V22.6665H18.061ZM16.2477 14.9174L19.081 17.7507L20.5827 16.249L17.7493 13.4157L16.2477 14.9174ZM16.2477 13.4157L13.4143 16.249L14.916 17.7507L17.7493 14.9174L16.2477 13.4157Z" fill="black"/>
<path d="M17.0007 2.8335V4.25016M31.1673 17.0002H29.7507M4.25065 17.0002H2.83398M27.0165 6.98433L26.4612 7.54108M7.54015 7.53966L6.9834 6.98291" stroke="black" stroke-width="2.125" stroke-linecap="round"/>
</svg>
