<svg width="34" height="34" viewBox="0 0 34 34" fill="none" xmlns="http://www.w3.org/2000/svg">
<path fill-rule="evenodd" clip-rule="evenodd" d="M17.0007 1.77051C17.2824 1.77051 17.5527 1.88245 17.752 2.08171C17.9512 2.28096 18.0632 2.55122 18.0632 2.83301V4.24967C18.0632 4.53147 17.9512 4.80172 17.752 5.00098C17.5527 5.20023 17.2824 5.31217 17.0007 5.31217C16.7189 5.31217 16.4486 5.20023 16.2494 5.00098C16.0501 4.80172 15.9382 4.53147 15.9382 4.24967V2.83301C15.9382 2.55122 16.0501 2.28096 16.2494 2.08171C16.4486 1.88245 16.7189 1.77051 17.0007 1.77051ZM6.23257 6.23159C6.43179 6.03262 6.70184 5.92086 6.9834 5.92086C7.26496 5.92086 7.53502 6.03262 7.73423 6.23159L8.29099 6.78692C8.48462 6.98722 8.59185 7.25556 8.58956 7.53415C8.58727 7.81274 8.47565 8.07928 8.27875 8.27637C8.08184 8.47346 7.81541 8.58533 7.53682 8.58788C7.25824 8.59043 6.9898 8.48346 6.78932 8.29001L6.23257 7.73326C6.0336 7.53404 5.92184 7.26399 5.92184 6.98242C5.92184 6.70086 6.0336 6.43081 6.23257 6.23159ZM27.7687 6.23159C27.9677 6.43081 28.0795 6.70086 28.0795 6.98242C28.0795 7.26399 27.9677 7.53404 27.7687 7.73326L27.212 8.29001C27.0106 8.47769 26.7442 8.57986 26.4689 8.57501C26.1937 8.57015 25.931 8.45864 25.7364 8.26397C25.5417 8.0693 25.4302 7.80667 25.4253 7.53141C25.4205 7.25616 25.5226 6.98976 25.7103 6.78834L26.2671 6.23159C26.4663 6.03262 26.7363 5.92086 27.0179 5.92086C27.2995 5.92086 27.5695 6.03262 27.7687 6.23159ZM17.0007 9.56217C15.0281 9.56217 13.1363 10.3458 11.7415 11.7406C10.3467 13.1354 9.56315 15.0271 9.56315 16.9997C9.56315 18.9722 10.3467 20.864 11.7415 22.2588C13.1363 23.6536 15.0281 24.4372 17.0007 24.4372C18.9732 24.4372 20.865 23.6536 22.2598 22.2588C23.6546 20.864 24.4382 18.9722 24.4382 16.9997C24.4382 15.0271 23.6546 13.1354 22.2598 11.7406C20.865 10.3458 18.9732 9.56217 17.0007 9.56217ZM7.43815 16.9997C7.43815 14.4635 8.44563 12.0313 10.2389 10.238C12.0323 8.44465 14.4645 7.43717 17.0007 7.43717C19.5368 7.43717 21.969 8.44465 23.7624 10.238C25.5557 12.0313 26.5632 14.4635 26.5632 16.9997C26.5632 19.5358 25.5557 21.9681 23.7624 23.7614C21.969 25.5547 19.5368 26.5622 17.0007 26.5622C14.4645 26.5622 12.0323 25.5547 10.2389 23.7614C8.44563 21.9681 7.43815 19.5358 7.43815 16.9997ZM1.77148 16.9997C1.77148 16.7179 1.88343 16.4476 2.08268 16.2484C2.28194 16.0491 2.55219 15.9372 2.83398 15.9372H4.25065C4.53244 15.9372 4.80269 16.0491 5.00195 16.2484C5.20121 16.4476 5.31315 16.7179 5.31315 16.9997C5.31315 17.2815 5.20121 17.5517 5.00195 17.751C4.80269 17.9502 4.53244 18.0622 4.25065 18.0622H2.83398C2.55219 18.0622 2.28194 17.9502 2.08268 17.751C1.88343 17.5517 1.77148 17.2815 1.77148 16.9997ZM28.6882 16.9997C28.6882 16.7179 28.8001 16.4476 28.9994 16.2484C29.1986 16.0491 29.4689 15.9372 29.7507 15.9372H31.1673C31.4491 15.9372 31.7194 16.0491 31.9186 16.2484C32.1179 16.4476 32.2298 16.7179 32.2298 16.9997C32.2298 17.2815 32.1179 17.5517 31.9186 17.751C31.7194 17.9502 31.4491 18.0622 31.1673 18.0622H29.7507C29.4689 18.0622 29.1986 17.9502 28.9994 17.751C28.8001 17.5517 28.6882 17.2815 28.6882 16.9997ZM25.7103 25.7093C25.9095 25.5104 26.1796 25.3986 26.4612 25.3986C26.7427 25.3986 27.0128 25.5104 27.212 25.7093L27.7687 26.2661C27.8731 26.3634 27.9569 26.4807 28.0149 26.611C28.073 26.7413 28.1042 26.882 28.1067 27.0247C28.1093 27.1673 28.083 27.3091 28.0296 27.4414C27.9761 27.5737 27.8966 27.6938 27.7957 27.7947C27.6948 27.8956 27.5746 27.9752 27.4423 28.0286C27.31 28.082 27.1683 28.1083 27.0257 28.1058C26.883 28.1032 26.7423 28.072 26.612 28.0139C26.4816 27.9559 26.3643 27.8721 26.2671 27.7678L25.7103 27.211C25.5113 27.0118 25.3996 26.7417 25.3996 26.4602C25.3996 26.1786 25.5113 25.9086 25.7103 25.7093ZM8.29099 25.7093C8.48996 25.9086 8.60172 26.1786 8.60172 26.4602C8.60172 26.7417 8.48996 27.0118 8.29099 27.211L7.73423 27.7678C7.63696 27.8721 7.51966 27.9559 7.38933 28.0139C7.259 28.072 7.1183 28.1032 6.97564 28.1058C6.83298 28.1083 6.69127 28.082 6.55897 28.0286C6.42667 27.9752 6.30649 27.8956 6.2056 27.7947C6.1047 27.6938 6.02517 27.5737 5.97173 27.4414C5.91829 27.3091 5.89205 27.1673 5.89456 27.0247C5.89708 26.882 5.92831 26.7413 5.98638 26.611C6.04445 26.4807 6.12818 26.3634 6.23257 26.2661L6.7879 25.7093C6.88657 25.6106 7.00373 25.5323 7.13268 25.4788C7.26164 25.4254 7.39986 25.3979 7.53944 25.3979C7.67903 25.3979 7.81725 25.4254 7.9462 25.4788C8.07515 25.5323 8.19231 25.6106 8.29099 25.7093ZM17.0007 28.6872C17.2824 28.6872 17.5527 28.7991 17.752 28.9984C17.9512 29.1976 18.0632 29.4679 18.0632 29.7497V31.1663C18.0632 31.4481 17.9512 31.7184 17.752 31.9176C17.5527 32.1169 17.2824 32.2288 17.0007 32.2288C16.7189 32.2288 16.4486 32.1169 16.2494 31.9176C16.0501 31.7184 15.9382 31.4481 15.9382 31.1663V29.7497C15.9382 29.4679 16.0501 29.1976 16.2494 28.9984C16.4486 28.7991 16.7189 28.6872 17.0007 28.6872Z" fill="black"/>
</svg>
